<?xml version="1.0" encoding="utf-8"?><svg xmlns="http://www.w3.org/2000/svg" width="20" height="12" viewBox="0 0 20 12"><path fill-rule="evenodd" fill="#95E1D3" d="M19.71 5.776l-.002.024-.001.013-.002.017-.003.021v.002a.757.757 0 01-.203.41c-.204.247-.427.479-.651.707-1.211 1.23-2.602 2.327-4.123 3.122-.973.509-2.012.919-3.09 1.116a8.971 8.971 0 01-3.55-.05c-2.04-.444-3.887-1.545-5.503-2.863-.75-.611-1.488-1.28-2.108-2.032-.272-.329-.272-.719 0-1.048.203-.247.426-.48.651-.708 1.211-1.229 2.601-2.326 4.123-3.122C6.22.877 7.259.466 8.337.269a8.971 8.971 0 013.55.051c2.04.443 3.887 1.545 5.503 2.862.75.611 1.488 1.281 2.108 2.033a.747.747 0 01.204.412l.002.02.003.018.001.012.001.025a.435.435 0 01.002.037l-.001.037zM9.99 1.942a3.645 3.645 0 100 7.29 3.645 3.645 0 000-7.29zm0 5.467a1.822 1.822 0 110-3.643 1.822 1.822 0 010 3.643z"/></svg>