<?xml version="1.0" encoding="utf-8"?><svg xmlns="http://www.w3.org/2000/svg" width="16" height="16" viewBox="0 0 16 16"><path fill-rule="evenodd" fill="#95E1D3" d="M15.837 6.404a7.958 7.958 0 00-2.18-4.046A7.935 7.935 0 009.611.177a8.04 8.04 0 00-6.085 1.204 8.082 8.082 0 00-2.159 2.16A7.94 7.94 0 000 8.014a7.906 7.906 0 00.629 3.115A8.012 8.012 0 008 16.016a7.97 7.97 0 003.114-.63 8.02 8.02 0 004.257-4.257A7.964 7.964 0 0016 8.014a7.96 7.96 0 00-.163-1.61zM14.83 7.947c-.099-.022-2.411-.519-4.759-.224-.048-.117-.096-.234-.147-.353a21.085 21.085 0 00-.454-.991c2.698-1.101 3.794-2.686 3.807-2.704a6.804 6.804 0 011.553 4.272zm-2.317-5.059c-.017.026-.99 1.507-3.569 2.473A34.613 34.613 0 006.39 1.375a6.803 6.803 0 016.123 1.513zM6.364 1.381l-.002.001-.02.005c.007-.003.014-.004.022-.006zm-1.279.455a41.078 41.078 0 012.537 3.936c-3.281.872-6.128.838-6.308.834a6.84 6.84 0 013.771-4.77zM1.168 8.014c0-.072.003-.144.005-.216.121.003 3.497.08 7.015-.972.196.382.383.772.554 1.16a8.34 8.34 0 00-.269.082c-3.687 1.192-5.557 4.51-5.557 4.51s.002.001.002.003a6.81 6.81 0 01-1.75-4.567zM8 14.847a6.797 6.797 0 01-4.352-1.566c.09.073.153.12.153.12s1.31-2.857 5.362-4.268l.045-.014c.961 2.498 1.358 4.59 1.459 5.188a6.806 6.806 0 01-2.667.54zm3.818-1.165c-.07-.413-.434-2.418-1.33-4.88 2.206-.353 4.117.251 4.258.298a6.838 6.838 0 01-2.928 4.582z"/></svg>