<?xml version="1.0" encoding="utf-8"?><svg xmlns="http://www.w3.org/2000/svg" width="16" height="16" viewBox="0 0 16 16"><path fill-rule="evenodd" fill="#95E1D3" d="M14 16.015H2a2 2 0 01-2-2v-12a2 2 0 012-2h12a2 2 0 012 2v12a2 2 0 01-2 2zm-6-11.1c-1.247 0-2.32.738-2.811 1.8h-.003l-.014.034a3.234 3.234 0 00-.08.201c-.012.032-.025.064-.036.097a2.58 2.58 0 00-.059.213c-.009.033-.019.066-.026.1a2.45 2.45 0 00-.038.23l-.015.093a3.1 3.1 0 106.164 0l-.015-.093a2.828 2.828 0 00-.038-.23c-.007-.034-.017-.067-.026-.1a3.043 3.043 0 00-.059-.213c-.011-.033-.024-.065-.036-.097a3.234 3.234 0 00-.08-.201l-.014-.034h-.003A3.097 3.097 0 008 4.915zm6.2-2.3a.8.8 0 00-.8-.8h-1.6a.8.8 0 00-.8.8v1.6a.8.8 0 00.8.8h1.6a.8.8 0 00.8-.8v-1.6zm0 4.1h-1.475a4.9 4.9 0 11-9.45 0H1.8v6.7a.8.8 0 00.8.8h10.8a.8.8 0 00.8-.8v-6.7z"/></svg>