<svg xmlns="http://www.w3.org/2000/svg" width="17" height="15">
    <path fill-rule="evenodd" fill="#95E1D3" d="M9.416 12.358c-.573 0-1.134-.165-1.675-.243-2.192 2.771-5.648 2.225-5.648 2.225 2.441-1.155 2.391-3.069 1.957-3.324C2.134 9.89.982 8.176.982 6.255c0-3.39 3.727-6.139 8.434-6.139 4.708 0 7.577 2.749 7.577 6.139 0 3.392-2.869 6.103-7.577 6.103zM5.242 4.875a1.5 1.5 0 1 0 0 3 1.5 1.5 0 0 0 0-3zm3.75 0a1.5 1.5 0 1 0 0 3 1.5 1.5 0 0 0 0-3zm3.75 0a1.5 1.5 0 1 0 0 3 1.5 1.5 0 0 0 0-3z"/>
</svg>
