<?xml version="1.0" encoding="utf-8"?><svg viewBox="0 0 16 17" xmlns="http://www.w3.org/2000/svg" xmlns:xlink="http://www.w3.org/1999/xlink"><style>:root>svg{display:none}:root>svg:target{display:block}</style><svg viewBox="0 0 16 16" id="dribbble" xmlns="http://www.w3.org/2000/svg"><path fill-rule="evenodd" fill="#95E1D3" d="M15.837 6.404a7.958 7.958 0 00-2.18-4.046A7.935 7.935 0 009.611.177a8.04 8.04 0 00-6.085 1.204 8.082 8.082 0 00-2.159 2.16A7.94 7.94 0 000 8.014a7.906 7.906 0 00.629 3.115A8.012 8.012 0 008 16.016a7.97 7.97 0 003.114-.63 8.02 8.02 0 004.257-4.257A7.964 7.964 0 0016 8.014a7.96 7.96 0 00-.163-1.61zM14.83 7.947c-.099-.022-2.411-.519-4.759-.224-.048-.117-.096-.234-.147-.353a21.085 21.085 0 00-.454-.991c2.698-1.101 3.794-2.686 3.807-2.704a6.804 6.804 0 011.553 4.272zm-2.317-5.059c-.017.026-.99 1.507-3.569 2.473A34.613 34.613 0 006.39 1.375a6.803 6.803 0 016.123 1.513zM6.364 1.381l-.002.001-.02.005c.007-.003.014-.004.022-.006zm-1.279.455a41.078 41.078 0 012.537 3.936c-3.281.872-6.128.838-6.308.834a6.84 6.84 0 013.771-4.77zM1.168 8.014c0-.072.003-.144.005-.216.121.003 3.497.08 7.015-.972.196.382.383.772.554 1.16a8.34 8.34 0 00-.269.082c-3.687 1.192-5.557 4.51-5.557 4.51s.002.001.002.003a6.81 6.81 0 01-1.75-4.567zM8 14.847a6.797 6.797 0 01-4.352-1.566c.09.073.153.12.153.12s1.31-2.857 5.362-4.268l.045-.014c.961 2.498 1.358 4.59 1.459 5.188a6.806 6.806 0 01-2.667.54zm3.818-1.165c-.07-.413-.434-2.418-1.33-4.88 2.206-.353 4.117.251 4.258.298a6.838 6.838 0 01-2.928 4.582z"/></svg><svg viewBox="0 0 8 17" id="facebook" xmlns="http://www.w3.org/2000/svg"><path fill-rule="evenodd" fill="#95E1D3" d="M7.993.015V2.59s-1.898-.189-2.374.538c-.26.399-.105 1.563-.128 2.399h2.518c-.213.978-.365 1.64-.522 2.487h-2.01v8.002H1.988V8.045H.504V5.527h1.468c.075-1.841.103-3.665 1.018-4.594C4.018-.111 4.998.015 7.993.015z"/></svg><svg viewBox="0 0 16 15" id="google-plus" xmlns="http://www.w3.org/2000/svg"><path fill-rule="evenodd" fill="#95E1D3" d="M13.5 3.717v2.44h-1v-2.44H10v-.998h2.5V.279h1v2.44H16v.998h-2.5zM6.585 1.246c.888.491 1.408 1.288 1.408 2.331 0 .876-.541 1.566-1.239 2.102-.681.522-.81.742-.81 1.186 0 .378.729 1.024 1.111 1.289 1.114.774 1.444 1.493 1.444 2.693 0 1.497-1.444 3.169-4.116 3.169C2.039 14.016 0 12.895 0 11.398c0-1.52 1.866-2.987 4.209-2.987.256 0 .49-.01.732-.01-.321-.307-.574-.688-.574-1.151 0-.275.089-.55.213-.785-.127.009-.257-.012-.391-.012-1.924 0-3.214-1.391-3.214-3.057C.975 1.765 2.756.263 4.648.263h4.22l-.945.983H6.585zM4.656 8.799c-1.62-.017-3.071.97-3.071 2.156 0 1.209 1.17 2.094 2.789 2.094 2.277 0 3.071-.823 3.071-2.032 0-.146-.018-.289-.052-.428-.178-.685-.808-1.024-1.688-1.624a3.596 3.596 0 00-1.049-.166zm1.82-5.203C6.287 2.194 5.207 1.068 4.12 1.037 3.033 1.005 2.304 2.078 2.492 3.48 2.68 4.883 3.713 6.046 4.8 6.077c1.087.032 1.863-1.079 1.676-2.481z"/></svg><svg viewBox="0 0 16 16" id="instagram" xmlns="http://www.w3.org/2000/svg"><path fill-rule="evenodd" fill="#95E1D3" d="M14 16.015H2a2 2 0 01-2-2v-12a2 2 0 012-2h12a2 2 0 012 2v12a2 2 0 01-2 2zm-6-11.1c-1.247 0-2.32.738-2.811 1.8h-.003l-.014.034a3.234 3.234 0 00-.08.201c-.012.032-.025.064-.036.097a2.58 2.58 0 00-.059.213c-.009.033-.019.066-.026.1a2.45 2.45 0 00-.038.23l-.015.093a3.1 3.1 0 106.164 0l-.015-.093a2.828 2.828 0 00-.038-.23c-.007-.034-.017-.067-.026-.1a3.043 3.043 0 00-.059-.213c-.011-.033-.024-.065-.036-.097a3.234 3.234 0 00-.08-.201l-.014-.034h-.003A3.097 3.097 0 008 4.915zm6.2-2.3a.8.8 0 00-.8-.8h-1.6a.8.8 0 00-.8.8v1.6a.8.8 0 00.8.8h1.6a.8.8 0 00.8-.8v-1.6zm0 4.1h-1.475a4.9 4.9 0 11-9.45 0H1.8v6.7a.8.8 0 00.8.8h10.8a.8.8 0 00.8-.8v-6.7z"/></svg><svg viewBox="0 0 13 17" id="pinterest" xmlns="http://www.w3.org/2000/svg"><path fill-rule="evenodd" fill="#95E1D3" d="M5.844 10.424c-.131.521-.262 1.066-.398 1.6-.135.526-.253 1.06-.449 1.543-.324.801-.737 1.575-1.277 2.201-.359.417-.283.251-.391.228-.083-.017-.09-.097-.106-.215-.088-.636-.028-1.372.005-2.087.037-.815.208-1.493.367-2.17.303-1.29.592-2.554.897-3.851.021-.087.075-.23.057-.279a3.973 3.973 0 01-.268-1.062 3.365 3.365 0 01.087-1.215c.172-.661.57-1.248 1.184-1.461.389-.136.821-.075 1.083.082.271.161.456.417.542.778.093.385.025.845-.049 1.183-.167.761-.387 1.333-.586 2.068-.099.365-.211.739-.118 1.132.085.362.273.611.529.797.266.193.581.3 1.016.285.767-.027 1.3-.517 1.657-.98.57-.741.915-1.74 1.047-2.929.042-.383.073-.824.043-1.259-.054-.802-.306-1.447-.704-1.948a3.298 3.298 0 00-1.57-1.069c-.648-.212-1.545-.282-2.342-.145-1.448.248-2.47 1.071-3.072 2.207a4.428 4.428 0 00-.523 2.131c0 .657.162 1.166.424 1.563.083.125.205.229.286.373.116.204-.018.508-.075.728-.068.265-.076.633-.386.639-.128.002-.29-.092-.398-.152C1.54 8.689 1.045 7.869.842 6.806a5.58 5.58 0 010-2.025c.119-.604.34-1.16.585-1.613A5.781 5.781 0 013.589.942 6.544 6.544 0 016.031.101c.318-.046.647-.065 1.003-.083a6.022 6.022 0 012.704.507 5.552 5.552 0 011.863 1.34 5.094 5.094 0 011.146 2.069c.126.432.249.896.249 1.43 0 .535-.114 1.008-.193 1.48-.296 1.767-1.137 3.212-2.398 4.035-.306.2-.677.384-1.097.506-.417.121-.892.213-1.402.177a2.877 2.877 0 01-1.239-.36c-.338-.191-.622-.425-.823-.778z"/></svg><svg viewBox="0 0 10 17" id="tumblr" xmlns="http://www.w3.org/2000/svg"><path fill-rule="evenodd" fill="#95E1D3" d="M10.009 15.145c-.68.321-1.297.548-1.849.678a7.792 7.792 0 01-1.789.195 4.863 4.863 0 01-1.718-.276 4.18 4.18 0 01-1.431-.79c-.396-.343-.669-.708-.823-1.092-.152-.386-.228-.944-.228-1.677V6.569H.007V4.302c.626-.204 1.351-.497 1.796-.879a4.363 4.363 0 001.075-1.375c.27-.534.457-1.213.558-2.04h2.265v3.704h3.682v2.857H5.701v4.105c0 .929-.012 1.464.086 1.727.097.262.341.534.607.691a2.3 2.3 0 001.209.319c.806 0 1.608-.264 2.406-.791v2.525z"/></svg><svg viewBox="0 0 16 14" id="twitter" xmlns="http://www.w3.org/2000/svg"><path fill-rule="evenodd" fill="#95E1D3" d="M10.883.516c1.271-.023 1.948.441 2.594 1.029.549-.047 1.262-.353 1.682-.566l.409-.224c-.24.649-.566 1.156-1.066 1.541-.11.086-.221.201-.36.256v.007c.712-.007 1.3-.328 1.858-.502v.008c-.293.466-.69.938-1.113 1.277l-.513.407c.01.755-.011 1.474-.152 2.108-.82 3.685-2.992 6.186-6.43 7.257-1.235.385-3.23.544-4.645.192a11.997 11.997 0 01-1.93-.631c-.33-.144-.636-.3-.929-.479A44.503 44.503 0 010 12.02c.319.01.692.098 1.049.04.323-.052.639-.038.937-.103.742-.163 1.402-.378 1.97-.711.275-.161.693-.35.889-.582a2.792 2.792 0 01-.977-.176c-1.062-.375-1.68-1.065-2.082-2.1.322.035 1.248.119 1.465-.064-.405-.022-.794-.257-1.073-.431C1.324 7.359.627 6.462.633 5.082l.336.16c.214.091.433.139.689.192.108.022.324.086.448.039H2.09c-.165-.191-.435-.32-.601-.526C.941 4.265.428 3.217.753 1.969c.082-.317.213-.596.352-.854a.12.12 0 01.016.008c.064.133.206.231.296.343.28.347.626.659.977.934 1.199.937 2.279 1.514 4.012 1.94.44.108.949.19 1.474.192-.148-.43-.1-1.126.016-1.541.292-1.046.927-1.8 1.858-2.204.222-.096.469-.167.728-.223l.401-.048z"/></svg><svg viewBox="0 0 16 12" id="youtube" xmlns="http://www.w3.org/2000/svg"><path fill-rule="evenodd" fill="#95E1D3" d="M13.537.523L8.312.518 2.883.523C1.525.523 0 1.429 0 2.759v6.618c0 1.329 1.525 2.14 2.883 2.14h10.654c1.359 0 2.459-.811 2.459-2.14V2.759c0-1.33-1.1-2.236-2.459-2.236zM6.964 8.566l-.032-5.04 3.508 2.542-3.476 2.498z"/></svg></svg>